# xmcd
# 
# Track frame offsets:
#     150
#     22597
#     41380
#     55107
#     76615
#     96267
#     109347
#     127052
#     146150
#     154940
#     163747
#     181002
# 
# Disc length: 2540
# 
# Revision: 2
# Processed by: cddbd v1.5.2PL0 Copyright (c) Steve Scherf et al.
# Submitted via: BonkEnc v1.0.15
# 
DISCID=9109ea0c
DTITLE=Johnny Cash d - Ride This Train
DYEAR=1960
DGENRE=Country
TTITLE0=Loading Coal
TTITLE1=Slow Rider
TTITLE2=Lumberjack
TTITLE3=Dorraine of Ponchartrain
TTITLE4=Going to Memphis
TTITLE5=When Papa Played the Dobro
TTITLE6=Boss Jack
TTITLE7=Old Doc Brown
TTITLE8=Fable of Willie Brown
TTITLE9=Second Honeymoon
TTITLE10=Ballad of the Harpweaver
TTITLE11=Smiling Bill McCall
EXTD=
EXTT0=
EXTT1=
EXTT2=
EXTT3=
EXTT4=
EXTT5=
EXTT6=
EXTT7=
EXTT8=
EXTT9=
EXTT10=
EXTT11=
PLAYORDER=
